<?xml version="1.0" encoding="UTF-8" standalone="no"?>
<!-- Created with Inkscape (http://www.inkscape.org/) -->

<svg
   xmlns:dc="http://purl.org/dc/elements/1.1/"
   xmlns:cc="http://creativecommons.org/ns#"
   xmlns:rdf="http://www.w3.org/1999/02/22-rdf-syntax-ns#"
   xmlns:svg="http://www.w3.org/2000/svg"
   xmlns="http://www.w3.org/2000/svg"
   xmlns:sodipodi="http://sodipodi.sourceforge.net/DTD/sodipodi-0.dtd"
   xmlns:inkscape="http://www.inkscape.org/namespaces/inkscape"
   width="210mm"
   height="219.12415mm"
   viewBox="0 0 210 219.12415"
   version="1.1"
   id="svg8"
   sodipodi:docname="logo2.svg"
   inkscape:version="0.92.2 5c3e80d, 2017-08-06">
  <defs
     id="defs2" />
  <sodipodi:namedview
     id="base"
     pagecolor="#ffffff"
     bordercolor="#666666"
     borderopacity="1.0"
     inkscape:pageopacity="0.0"
     inkscape:pageshadow="2"
     inkscape:zoom="0.53807938"
     inkscape:cx="296.89651"
     inkscape:cy="425.97764"
     inkscape:document-units="mm"
     inkscape:current-layer="layer1"
     showgrid="false"
     inkscape:window-width="1046"
     inkscape:window-height="759"
     inkscape:window-x="363"
     inkscape:window-y="57"
     inkscape:window-maximized="0"
     inkscape:snap-page="true"
     inkscape:snap-object-midpoints="true"
     fit-margin-top="0"
     fit-margin-left="0"
     fit-margin-right="0"
     fit-margin-bottom="0" />
  <metadata
     id="metadata5">
    <rdf:RDF>
      <cc:Work
         rdf:about="">
        <dc:format>image/svg+xml</dc:format>
        <dc:type
           rdf:resource="http://purl.org/dc/dcmitype/StillImage" />
        <dc:title></dc:title>
      </cc:Work>
    </rdf:RDF>
  </metadata>
  <g
     inkscape:label="Layer 1"
     inkscape:groupmode="layer"
     id="layer1"
     transform="translate(-0.58545086,-45.870514)">
    <path
       inkscape:connector-curvature="0"
       id="path3766"
       d="M 95.829089,260.63748 C 77.400551,249.76961 52.577795,227.18474 37.949814,207.97628 21.066256,185.80594 11.122495,164.64186 4.3429347,136.44813 2.0680604,126.98775 1.686286,120.85989 1.1949747,85.919881 L 0.63585159,46.157671 105.61057,46.301443 l 104.97474,0.143772 -0.67473,39.760521 c -0.72633,42.803944 -1.28015,47.135604 -9.05725,70.840684 -4.50722,13.73823 -17.56027,38.87981 -26.67779,51.38429 -17.45385,23.93755 -56.56588,56.71983 -67.65116,56.70271 -1.6938,-0.003 -6.50666,-2.02578 -10.695291,-4.49594 z M 68.451613,186.25575 c 8.81e-4,-0.6067 -1.870658,-1.70579 -4.15898,-2.4424 -2.288317,-0.73661 -5.138374,-2.39112 -6.333454,-3.6767 -2.071275,-2.22811 -2.074787,-3.91747 -0.07509,-36.12904 1.153786,-18.58537 2.090006,-35.04724 2.080486,-36.5819 -0.04872,-7.853543 3.962523,-0.2383 31.721736,60.22267 5.466946,11.90728 8.950579,18.07241 10.362239,18.33833 1.16963,0.22025 2.12749,-0.22216 2.1286,-0.98357 0.002,-1.27746 10.90237,-24.8607 17.94638,-38.82705 1.65747,-3.28627 6.56339,-13.47972 10.90213,-22.65217 4.3387,-9.17241 8.44411,-16.85603 9.12311,-17.07472 1.62933,-0.52474 2.5494,9.7336 3.98353,44.4125 0.86664,20.95653 0.81183,29.00222 -0.20554,30.18901 -0.76298,0.88988 -3.53972,2.24083 -6.17055,3.00206 -2.63079,0.76123 -4.78393,1.83701 -4.78474,2.39062 -8e-4,0.55358 9.14504,1.01908 20.32404,1.03439 12.72911,0.0174 20.32619,-0.4191 20.32728,-1.168 9.6e-4,-0.65771 -0.60741,-1.19667 -1.35191,-1.19769 -2.68744,-0.004 -9.83907,-3.96102 -11.01014,-6.09245 -1.28667,-2.34175 -2.7962,-22.30853 -4.77575,-63.1691 -1.33532,-27.562566 -0.95946,-29.983799 4.93505,-31.791079 5.4744,-1.678435 1.95736,-2.997022 -8.03054,-3.010701 l -10.53144,-0.01442 -4.37679,9.261718 c -2.40725,5.093956 -6.49129,13.832862 -9.07564,19.419852 -22.65462,48.97586 -24.43586,52.58317 -25.96352,52.58108 -1.46483,-0.002 -6.110519,-9.51004 -24.556647,-50.25859 -2.83021,-6.25212 -7.279955,-15.80992 -9.888322,-21.239587 l -4.742486,-9.872127 -10.527627,-0.01442 c -5.790121,-0.0079 -10.524572,0.389205 -10.521005,0.882488 0.0035,0.493283 1.586586,1.772205 3.517823,2.842049 2.151131,1.191668 3.771511,3.276591 4.18298,5.382197 1.437292,7.355143 -3.567539,83.12219 -5.795969,87.74392 -0.792282,1.64319 -3.7779,4.06068 -6.634708,5.37217 -2.856809,1.31151 -5.214874,2.78812 -5.240142,3.28136 -0.02516,0.49325 7.437543,0.90709 16.584025,0.91961 9.333339,0.0128 16.630676,-0.46124 16.631576,-1.08031 z"
       style="fill:#015e9f;stroke-width:1.21370757" />
  </g>
</svg>
